<svg width="16" height="17" viewBox="0 0 16 17" fill="none" xmlns="http://www.w3.org/2000/svg">
<path d="M4.03544 0.146447C3.84018 -0.0488155 3.52359 -0.0488156 3.32833 0.146447L0.146351 3.32843C-0.0489115 3.52369 -0.0489115 3.84027 0.146351 4.03553C0.341613 4.2308 0.658195 4.2308 0.853458 4.03553L3.68188 1.20711L6.51031 4.03553C6.70557 4.2308 7.02216 4.2308 7.21742 4.03553C7.41268 3.84027 7.41268 3.52369 7.21742 3.32843L4.03544 0.146447ZM3.18188 0.5L3.18188 16.5L4.18188 16.5L4.18188 0.5L3.18188 0.5Z" fill="#FF9F0E"/>
<path d="M11.3283 16.8536C11.5236 17.0488 11.8402 17.0488 12.0354 16.8536L15.2174 13.6716C15.4127 13.4763 15.4127 13.1597 15.2174 12.9645C15.0222 12.7692 14.7056 12.7692 14.5103 12.9645L11.6819 15.7929L8.85346 12.9645C8.65819 12.7692 8.34161 12.7692 8.14635 12.9645C7.95109 13.1597 7.95109 13.4763 8.14635 13.6716L11.3283 16.8536ZM11.1819 0.5L11.1819 16.5L12.1819 16.5L12.1819 0.5L11.1819 0.5Z" fill="#FF9F0E"/>
</svg>
