<svg width="59" height="56" viewBox="0 0 59 56" fill="none" xmlns="http://www.w3.org/2000/svg">
<path d="M29.4091 26.1805C31.8561 22.4537 36.0121 23.4254 41.5008 21.6936C49.4964 19.2064 53.1919 22.3496 52.1037 25.918C51.1149 29.4086 45.8347 30.2226 43.9618 33.6508C41.8347 36.9763 43.8417 41.4414 40.9953 44.1227C38.2482 46.7262 33.4068 45.5366 31.5384 37.9447C30.3259 32.8575 27.1172 30.0877 29.4091 26.1805Z" fill="#839AA9"/>
<path d="M32.0799 15.486C33.7902 19.2191 37.3295 21.2127 39.8893 20.1308C42.4491 19.0489 43.1176 14.9904 41.3079 11.3351C39.5977 7.60195 36.1577 5.53051 33.4986 6.69022C30.8394 7.84994 30.3697 11.7529 32.0799 15.486Z" fill="#839AA9"/>
<path d="M21.1426 34.5521C25.4021 33.8069 28.9317 35.3597 29.123 37.9435C29.3143 40.5274 25.9804 43.1376 21.7481 43.7177C17.4886 44.4628 13.959 42.9101 13.7677 40.3262C13.5764 37.7424 16.9103 35.1322 21.1426 34.5521Z" fill="#839AA9"/>
<path d="M19.9801 20.7595C23.4974 23.435 27.9899 23.7958 30.0683 21.548C32.1468 19.3003 30.8731 15.1783 27.3558 12.5028C23.8385 9.82729 19.346 9.46652 17.2676 11.7143C15.1891 13.962 16.4628 18.084 19.9801 20.7595Z" fill="#839AA9"/>
<path d="M18.7911 21.726C23.0002 22.9763 25.4616 26.035 24.3914 28.6325C23.3212 31.2301 19.1325 32.3099 14.9234 31.0596C10.7143 29.8093 8.25295 26.7507 9.32314 24.1531C10.3933 21.5556 14.582 20.4757 18.7911 21.726Z" fill="#839AA9"/>
</svg>
