<svg width="21" height="22" viewBox="0 0 21 22" fill="none" xmlns="http://www.w3.org/2000/svg">
<path d="M10.1531 10.3754C8.42968 10.7577 8.27422 12.384 6.91328 14.1214C4.96005 16.6628 5.65739 18.4363 7.12235 18.5519C8.58731 18.6675 9.53127 16.8805 11.0972 16.6752C12.6254 16.3741 14.0658 17.7269 15.3945 17.0626C16.742 16.4463 16.8819 14.4919 14.2805 12.7855C12.5361 11.6707 11.8842 10.1572 10.1531 10.3754Z" fill="#D9A6FF"/>
<path d="M5.36317 9.76394C6.4923 11.0004 6.85851 12.613 6.18871 13.3623C5.47286 14.1307 3.98369 13.7501 2.85456 12.5137C1.72543 11.2773 1.35923 9.66463 2.02903 8.91533C2.74488 8.14687 4.23404 8.52752 5.36317 9.76394Z" fill="#D9A6FF"/>
<path d="M14.0099 8.34254C13.2744 9.84395 13.4525 11.4208 14.3583 11.8979C15.264 12.375 16.6113 11.5868 17.3467 10.0854C18.0822 8.58397 17.9041 7.00716 16.9983 6.53004C16.0451 6.07268 14.6978 6.86087 14.0099 8.34254Z" fill="#D9A6FF"/>
<path d="M8.85869 6.05994C9.45805 7.72575 9.05909 9.40061 8.03495 9.76862C7.0108 10.1366 5.69631 9.05851 5.09695 7.3927C4.4976 5.72689 4.89656 4.05202 5.9207 3.684C6.94485 3.31598 8.25934 4.39413 8.85869 6.05994Z" fill="#D9A6FF"/>
<path d="M9.84862 5.68954C9.80844 7.37033 10.6489 8.68478 11.6746 8.68751C12.7467 8.67096 13.6252 7.33925 13.6835 5.70459C13.7237 4.0238 12.8833 2.70935 11.8575 2.70663C10.8137 2.65776 9.8888 4.00875 9.84862 5.68954Z" fill="#D9A6FF"/>
</svg>
